# xmcd
#
# Track frame offsets: 
#        150
#        21040
#        41930
#        64152
#        80762
#        101465
#        115092
#        130937
#        146430
#        166192
#        182250
#
# Disc length: 2975 seconds
#
# Revision: 4
# Processed by: cddbd v1.5.2PL0 Copyright (c) Steve Scherf et al.
# Submitted via: ExactAudioCopy v0.95b4
#
DISCID=8c0b9d0b
DTITLE=Hevia - No Man's Land
DYEAR=1999
DGENRE=Celtic
TTITLE0=Busindre Reel
TTITLE1=Naves
TTITLE2=Si La Nieve
TTITLE3=Gaviotes
TTITLE4=El Garrotin
TTITLE5=El Ramu
TTITLE6=La Linea Trazada
TTITLE7=Llaciana
TTITLE8=Sobrepena
TTITLE9=Barganaz
TTITLE10=Anada - Corri Corri
EXTD=
EXTT0=
EXTT1=
EXTT2=
EXTT3=
EXTT4=
EXTT5=
EXTT6=
EXTT7=
EXTT8=
EXTT9=
EXTT10=
PLAYORDER=
